<svg width="1059" height="100" viewBox="0 0 1059 100" fill="none" xmlns="http://www.w3.org/2000/svg">
<g clip-path="url(#clip0_2_87)">
<path d="M1260 30.8446C1161.47 65.9112 1058.17 88.1668 954.054 69.6335C879.838 56.4335 809.005 26.9557 732.973 24.4446C678.52 22.5531 624.102 29.1425 571.568 43.989C517.654 59.3668 466.876 75.7668 410.346 76.2668C354.357 76.7779 298.692 66.7446 244.832 51.6113C222.984 45.4668 201.373 38.4557 179.968 30.8446C122.063 10.3545 61.2402 -0.06989 0 0.000144348L0 100H1440V0.000144348C1378.75 -0.073596 1317.91 10.3508 1260 30.8446Z" fill="#005466"/>
<path d="M831.036 7.89062L833.36 13.6914L835.685 7.89062H836.9V15H835.963V12.2314L836.051 9.24316L833.717 15H832.999L830.67 9.25781L830.763 12.2314V15H829.825V7.89062H831.036ZM843.969 13.1445H840.991L840.322 15H839.355L842.07 7.89062H842.89L845.61 15H844.648L843.969 13.1445ZM841.274 12.373H843.691L842.48 9.04785L841.274 12.373ZM849.813 11.8066H848.948V15H848.011V7.89062H848.948V11.0254H849.681L852.166 7.89062H853.333L850.618 11.3379L853.533 15H852.386L849.813 11.8066ZM859.811 11.7139H856.73V14.2334H860.309V15H855.793V7.89062H860.261V8.66211H856.73V10.9473H859.811V11.7139ZM867.886 8.66211H865.601V15H864.668V8.66211H862.388V7.89062H867.886V8.66211ZM875.872 11.8066H875.007V15H874.07V7.89062H875.007V11.0254H875.74L878.225 7.89062H879.392L876.677 11.3379L879.592 15H878.445L875.872 11.8066ZM885.778 13.1445H882.799L882.13 15H881.163L883.878 7.89062H884.698L887.418 15H886.456L885.778 13.1445ZM883.082 12.373H885.499L884.288 9.04785L883.082 12.373ZM895.239 15H894.297V11.7139H890.713V15H889.775V7.89062H890.713V10.9473H894.297V7.89062H895.239V15ZM902.318 13.1445H899.339L898.67 15H897.704L900.418 7.89062H901.239L903.958 15H902.996L902.318 13.1445ZM899.622 12.373H902.039L900.829 9.04785L899.622 12.373ZM911.779 7.89062V15H910.842V8.66211H908.293L908.166 11.4795C908.117 12.4235 908.02 13.1331 907.873 13.6084C907.73 14.0837 907.518 14.4336 907.238 14.6582C906.958 14.8796 906.584 14.9935 906.115 15H905.808V14.2334L906.003 14.2236C906.306 14.2008 906.538 14.1032 906.701 13.9307C906.864 13.7549 906.988 13.4766 907.072 13.0957C907.157 12.7148 907.217 12.1289 907.253 11.3379L907.399 7.89062H911.779ZM918.897 13.1445H915.919L915.25 15H914.283L916.998 7.89062H917.818L920.538 15H919.576L918.897 13.1445ZM916.202 12.373H918.619L917.408 9.04785L916.202 12.373ZM934.436 12.5488C934.397 13.3366 934.202 13.9583 933.85 14.4141C933.499 14.8698 933.028 15.0977 932.439 15.0977C931.831 15.0977 931.44 14.8242 931.267 14.2773C931.092 14.554 930.89 14.7607 930.662 14.8975C930.437 15.0309 930.205 15.0977 929.964 15.0977C929.501 15.0977 929.151 14.9089 928.914 14.5312C928.676 14.1536 928.588 13.6312 928.65 12.9639C928.699 12.4268 928.821 11.9482 929.016 11.5283C929.215 11.1051 929.469 10.7731 929.778 10.5322C930.091 10.2913 930.418 10.1709 930.76 10.1709C931.023 10.1709 931.259 10.2067 931.468 10.2783C931.676 10.3467 931.91 10.4834 932.171 10.6885L931.917 13.3936C931.855 14.1455 932.063 14.5215 932.542 14.5215C932.91 14.5215 933.207 14.3392 933.435 13.9746C933.663 13.61 933.787 13.1348 933.806 12.5488C933.868 11.2826 933.632 10.3174 933.098 9.65332C932.568 8.98926 931.759 8.65723 930.672 8.65723C930.017 8.65723 929.436 8.81999 928.929 9.14551C928.421 9.46777 928.02 9.9349 927.727 10.5469C927.434 11.1589 927.27 11.8652 927.234 12.666C927.195 13.4733 927.293 14.1748 927.527 14.7705C927.762 15.363 928.118 15.8154 928.596 16.1279C929.078 16.4437 929.659 16.6016 930.34 16.6016C930.633 16.6016 930.926 16.5658 931.219 16.4941C931.515 16.4225 931.761 16.3298 931.956 16.2158L932.137 16.7773C931.935 16.9043 931.666 17.0085 931.331 17.0898C930.999 17.1712 930.662 17.2119 930.32 17.2119C929.506 17.2119 928.806 17.028 928.221 16.6602C927.635 16.2956 927.195 15.7682 926.902 15.0781C926.612 14.3913 926.487 13.5872 926.526 12.666C926.565 11.7708 926.765 10.9668 927.127 10.2539C927.488 9.53776 927.978 8.986 928.596 8.59863C929.215 8.20801 929.913 8.0127 930.691 8.0127C931.502 8.0127 932.197 8.19499 932.776 8.55957C933.356 8.92415 933.787 9.44987 934.07 10.1367C934.353 10.8236 934.475 11.6276 934.436 12.5488ZM929.427 12.9639C929.381 13.4261 929.423 13.7809 929.554 14.0283C929.687 14.2757 929.897 14.3994 930.183 14.3994C930.379 14.3994 930.566 14.3164 930.745 14.1504C930.927 13.9844 931.077 13.7467 931.194 13.4375L931.199 13.3936L931.424 10.9375C931.241 10.8431 931.046 10.7959 930.838 10.7959C930.457 10.7959 930.141 10.9896 929.89 11.377C929.643 11.7643 929.488 12.2933 929.427 12.9639ZM941.08 11.8604H938.097V15H937.16V7.89062H941.564V8.66211H938.097V11.0938H941.08V11.8604ZM945.093 15H944.155V7.89062H945.093V15ZM953.461 14.0674C953.22 14.4124 952.883 14.6712 952.45 14.8438C952.02 15.013 951.519 15.0977 950.946 15.0977C950.366 15.0977 949.852 14.9626 949.403 14.6924C948.954 14.4189 948.605 14.0316 948.358 13.5303C948.114 13.029 947.989 12.4479 947.982 11.7871V11.167C947.982 10.096 948.231 9.26595 948.729 8.67676C949.23 8.08757 949.934 7.79297 950.838 7.79297C951.581 7.79297 952.178 7.9834 952.63 8.36426C953.083 8.74186 953.36 9.27897 953.461 9.97559H952.523C952.347 9.03483 951.787 8.56445 950.843 8.56445C950.215 8.56445 949.738 8.78581 949.413 9.22852C949.09 9.66797 948.928 10.306 948.924 11.1426V11.7236C948.924 12.5212 949.107 13.1559 949.471 13.6279C949.836 14.0967 950.329 14.3311 950.951 14.3311C951.302 14.3311 951.61 14.292 951.874 14.2139C952.137 14.1357 952.355 14.0039 952.528 13.8184V12.2217H950.882V11.46H953.461V14.0674ZM957.639 7.89062L959.963 13.6914L962.287 7.89062H963.503V15H962.566V12.2314L962.654 9.24316L960.32 15H959.602L957.273 9.25781L957.365 12.2314V15H956.428V7.89062H957.639ZM970.572 13.1445H967.594L966.925 15H965.958L968.673 7.89062H969.493L972.213 15H971.251L970.572 13.1445ZM967.877 12.373H970.294L969.083 9.04785L967.877 12.373ZM978.994 15H974.335V14.3506L976.796 11.6162C977.161 11.2028 977.412 10.8675 977.548 10.6104C977.688 10.3499 977.758 10.0814 977.758 9.80469C977.758 9.43359 977.646 9.12923 977.421 8.8916C977.197 8.65397 976.897 8.53516 976.523 8.53516C976.074 8.53516 975.724 8.66374 975.473 8.9209C975.226 9.1748 975.102 9.52962 975.102 9.98535H974.199C974.199 9.33105 974.409 8.80208 974.829 8.39844C975.252 7.99479 975.816 7.79297 976.523 7.79297C977.184 7.79297 977.706 7.96712 978.09 8.31543C978.474 8.66048 978.666 9.12109 978.666 9.69727C978.666 10.3971 978.22 11.2305 977.329 12.1973L975.424 14.2627H978.994V15ZM987.049 15H986.106V11.7139H982.522V15H981.585V7.89062H982.522V10.9473H986.106V7.89062H987.049V15ZM994.879 8.66211H992.594V15H991.662V8.66211H989.381V7.89062H994.879V8.66211ZM998.545 7.89062L1000.87 13.6914L1003.19 7.89062H1004.41V15H1003.47V12.2314L1003.56 9.24316L1001.23 15H1000.51L998.179 9.25781L998.272 12.2314V15H997.334V7.89062H998.545ZM1008.41 14.2334H1011.78V15H1007.46V7.89062H1008.41V14.2334Z" fill="#E4E4E4"/>
</g>
<defs>
<clipPath id="clip0_2_87">
<rect width="1440" height="100" fill="white"/>
</clipPath>
</defs>
</svg>
